<svg width="45" height="45" viewBox="0 0 45 45" fill="none" xmlns="http://www.w3.org/2000/svg">
<g id="icon/device/access_alarms_24px">
<path id="icon/device/access_alarms_24px_2" fill-rule="evenodd" clip-rule="evenodd" d="M41.2501 10.875L32.6251 3.5625L30.1876 6.375L38.8126 13.6875L41.2501 10.875ZM14.8125 6.56248L12.375 3.74998L3.75 10.875L6.1875 13.6875L14.8125 6.56248ZM20.625 15.1875H23.4375V25.125L30.9375 29.625L29.4375 31.875L20.625 26.4375V15.1875ZM22.5 7.68746C13.125 7.68746 5.625 15.1875 5.625 24.5625C5.625 33.9375 13.125 41.4375 22.5 41.4375C31.875 41.4375 39.375 33.9375 39.375 24.5625C39.375 15.1875 31.875 7.68746 22.5 7.68746ZM9.375 24.5625C9.375 31.875 15.1875 37.6875 22.5 37.6875C29.8125 37.6875 35.625 31.875 35.625 24.5625C35.625 17.25 29.8125 11.4375 22.5 11.4375C15.1875 11.4375 9.375 17.25 9.375 24.5625Z" fill="#333333"/>
</g>
</svg>
