<svg width="24" height="25" viewBox="0 0 24 25" fill="none" xmlns="http://www.w3.org/2000/svg">
<g id="icon/action/settings_power_24px">
<path id="icon/action/settings_power_24px_2" fill-rule="evenodd" clip-rule="evenodd" d="M11 1.5H13V11.5H11V1.5ZM7 23.5H9V21.5H7V23.5ZM13 23.5V21.5H11V23.5H13ZM16.56 3.94L15.11 5.39C16.84 6.44 18 8.33 18 10.5C18 13.81 15.31 16.5 12 16.5C8.69 16.5 6 13.81 6 10.5C6 8.33 7.16 6.44 8.88 5.38L7.44 3.94C5.36 5.38 4 7.78 4 10.5C4 14.92 7.58 18.5 12 18.5C16.42 18.5 20 14.92 20 10.5C20 7.78 18.64 5.38 16.56 3.94ZM17 23.5H15V21.5H17V23.5Z" fill="white"/>
</g>
</svg>
