<svg width="609" height="498" viewBox="0 0 609 498" fill="none" xmlns="http://www.w3.org/2000/svg">
<g clip-path="url(#clip0)">
<path opacity="0.1" d="M594.192 288.687C594.192 289.065 594.192 289.444 594.192 289.816C594.126 296.34 593.739 302.847 593.033 309.338C593.036 309.377 593.036 309.417 593.033 309.456C592.977 309.996 592.915 310.529 592.853 311.068C592.748 311.98 592.636 312.885 592.512 313.797C591.068 324.894 588.678 335.846 585.368 346.535C580.935 360.978 574.667 374.793 566.718 387.638C564.273 391.566 561.669 395.368 558.905 399.043C557.431 400.99 555.925 402.894 554.37 404.767C553.279 406.078 552.168 407.368 551.036 408.637L550.33 409.418C544.375 415.963 537.956 422.068 531.122 427.688C519.97 436.94 507.962 444.99 495.762 452.457C495.068 452.885 494.368 453.306 493.667 453.697C493.619 453.733 493.567 453.764 493.513 453.79C476.932 463.824 459.738 472.878 442.024 480.128C422.63 488.084 402.605 493.87 382.059 496.401C353.421 499.923 324.436 497.058 295.971 492.134C272.298 488.063 248.911 482.47 225.956 475.39L222.177 474.205C220.219 473.581 218.263 472.944 216.309 472.295C204.508 468.388 192.839 464.047 181.302 459.272C152.326 447.327 124.645 432.451 98.6901 414.875C95.3856 412.651 92.1286 410.377 88.919 408.054C84.4331 404.821 80.0009 401.493 75.6224 398.069L72.9209 395.973C61.4623 386.993 50.7267 377.125 40.8132 366.46C27.4793 351.936 16.0849 335.552 8.5939 316.848C7.41252 313.909 6.33029 310.913 5.34719 307.862L5.25424 307.558C4.75856 306.008 4.30006 304.458 3.87873 302.845C3.25913 300.538 2.71595 298.202 2.24918 295.838C2.15004 295.385 2.0633 294.932 1.98275 294.473C0.501832 286.515 -0.152234 278.424 0.0310047 270.331C0.18597 263.239 1.01586 256.179 2.50941 249.246C4.0381 242.058 6.39384 235.072 9.5295 228.427C12.3632 222.452 15.9737 216.878 20.2672 211.85C23.2842 208.335 26.6772 205.162 30.3853 202.387C37.108 197.376 44.5618 193.885 52.2882 191.125C55.9191 189.823 59.5995 188.682 63.2985 187.621C65.9194 186.865 68.5527 186.145 71.1736 185.438L78.9063 183.348C83.8631 181.996 88.8199 180.607 93.7023 179.106C107.011 175.038 120.054 170.114 132.118 162.772C134.026 161.612 135.972 160.341 137.917 158.976C140.396 157.252 142.837 155.379 145.253 153.358C147.694 151.311 150.086 149.122 152.366 146.803C152.719 146.443 153.066 146.083 153.413 145.717C155.272 143.758 157.075 141.705 158.748 139.572C159.566 138.53 160.359 137.469 161.115 136.39C162.162 134.896 163.153 133.376 164.07 131.814C168.668 124 171.506 115.38 171.171 106.294C171.122 104.798 170.988 103.305 170.768 101.823C169.963 96.3473 169.188 91.0016 168.618 85.7737C166.227 64.149 167.237 44.5398 183.452 26.1152C203.613 3.21297 235.256 -1.45677 264.062 0.372679C347.342 5.64396 423.157 53.2344 489.783 109.891C495.545 114.786 501.237 119.748 506.859 124.775C508.276 126.04 509.694 127.313 511.115 128.595C521.649 138.09 532.021 147.938 541.68 158.486C542.461 159.342 543.242 160.198 544.01 161.06C544.481 161.593 544.958 162.121 545.423 162.66C548.434 166.071 551.356 169.564 554.19 173.141C561.781 182.635 568.484 192.806 574.216 203.528C582.991 220.354 588.933 238.514 591.8 257.277C592.878 264.09 593.587 270.957 593.925 277.847C594.03 279.875 594.099 281.909 594.136 283.937C594.136 284.588 594.136 285.233 594.136 285.884C594.198 286.827 594.198 287.745 594.192 288.687Z" fill="#6C63FF"/>
<path d="M244.111 278.287L234.197 454.9L244.111 455.03L252.165 275.806L244.111 278.287Z" fill="#3F3D56"/>
<path d="M207.554 367.768H84.873V394.435H207.554V367.768Z" fill="#4382FF"/>
<path d="M215.609 391.328V408.072H88.8818C84.3959 404.839 79.9637 401.511 75.5851 398.088V391.328H215.609Z" fill="#3F3D56"/>
<path d="M240.913 353.219C240.566 354.826 240.114 356.413 239.637 357.995C238.23 362.565 236.539 367.074 236.211 371.824C235.771 378.1 237.45 385.399 233.113 389.957C231.997 391.135 230.541 392.016 229.544 393.275C229.39 393.472 229.249 393.68 229.122 393.895C228.23 395.371 228.125 397.17 228.112 398.856C228.123 402.454 228.357 406.047 228.813 409.616C230.281 421.895 233.181 434.199 229.37 445.789C228.68 447.8 227.875 449.769 226.96 451.687C225.101 455.78 223.075 459.817 222.468 464.251C222.022 467.538 222.158 470.924 222.133 474.267C220.175 473.642 218.219 473.006 216.266 472.357C204.464 468.45 192.795 464.109 181.258 459.333C181.289 459.166 181.32 458.992 181.345 458.825C182.231 453.306 181.017 447.662 179.542 442.279C176.444 430.875 172.057 419.582 169.461 408.097C168.415 403.611 167.73 399.048 167.41 394.453C167.336 393.424 167.292 392.388 167.286 391.352C167.255 390.001 167.286 388.649 167.342 387.284C167.472 384.562 167.59 381.331 165.415 379.675C164.219 378.776 162.639 378.621 161.245 378.075C158.556 377.027 156.716 374.596 154.584 372.649C153.568 371.662 152.326 370.937 150.967 370.537C149.608 370.137 148.172 370.075 146.784 370.354C132.855 373.548 122.619 385.374 109.657 391.352C109.155 391.588 108.653 391.811 108.145 392.022C106.468 392.637 104.873 393.453 103.393 394.453C102.353 395.176 101.599 396.24 101.261 397.461C100.933 398.776 101.218 400.152 101.379 401.504C101.64 403.703 101.546 405.928 101.1 408.097C100.932 408.937 100.711 409.765 100.437 410.577C99.9417 412.047 99.2787 413.486 98.6467 414.918C95.3422 412.694 92.0851 410.42 88.8756 408.097C84.3897 404.864 79.9575 401.535 75.5789 398.112L72.9209 395.973C61.4623 386.992 50.7266 377.124 40.8131 366.46C42.1329 362.739 44.0412 359.278 44.9582 355.464C45.4787 353.275 45.6708 350.999 46.3895 348.872C47.2184 346.667 48.3711 344.598 49.8097 342.733C55.0785 335.378 61.512 328.935 68.8563 323.657C76.5331 318.15 85.3996 313.734 92.3082 307.483C95.1118 305.027 97.5286 302.16 99.477 298.981C99.5947 298.789 99.7062 298.584 99.8054 298.361C100.345 297.238 100.718 296.043 100.914 294.814C101.41 292.035 101.336 288.984 101.584 286.317C110 287.776 118.579 288.034 127.068 287.086C136.95 285.976 146.616 283.229 156.499 282.162C157.242 282.076 157.992 282.007 158.742 281.945C161.908 281.691 165.08 281.635 168.259 281.673C170.917 281.673 173.575 281.79 176.233 281.877L205.497 282.869C208.737 282.981 212.046 283.105 215.064 284.29C218.645 285.697 221.514 288.5 223.812 291.583C224.104 291.979 224.395 292.376 224.667 292.786C226.559 295.547 228.076 298.548 229.178 301.71C229.296 302.032 229.407 302.33 229.513 302.683C229.792 303.545 230.033 304.414 230.25 305.294C230.417 305.982 230.566 306.671 230.702 307.365C231.384 310.801 231.787 314.311 232.865 317.629C232.939 317.871 233.02 318.113 233.106 318.348C234.401 321.982 236.551 325.238 238.175 328.73C239.345 331.257 240.238 333.904 240.839 336.624C242.053 342.087 242.078 347.746 240.913 353.219Z" fill="#35323E"/>
<path d="M151.963 131.286C149.349 129.202 145.557 130.728 142.496 132.074C139.93 133.208 137.288 134.163 134.59 134.933C134.038 135.145 133.439 135.207 132.855 135.112C131.616 134.815 131.095 133.345 130.172 132.452C128.567 130.908 125.94 131.274 123.871 132.111C121.801 132.948 119.757 134.157 117.538 133.971C115.172 133.785 113.114 132.036 110.723 131.981C106.509 131.881 102.972 137.078 98.9875 135.702C96.5587 134.864 94.6503 131.702 92.2587 132.601C90.3999 133.308 90.2326 135.881 89.1111 137.562C87.7913 139.522 85.22 140.074 83.0204 140.942C76.0871 143.683 71.4958 151.416 72.4004 158.821C72.9023 162.908 74.8788 166.653 76.1862 170.554C80.0649 181.897 78.7328 194.69 83.6214 205.63C84.241 205.047 84.588 204.83 85.189 204.253C83.6433 207.462 83.3451 211.131 84.3525 214.548C84.8668 216.265 85.7033 217.865 86.3353 219.546C86.9918 221.431 87.5217 223.358 87.9214 225.313L93.312 249.115C95.4186 258.417 97.5315 267.719 97.897 277.245C98.1246 283.439 97.6507 289.638 96.4843 295.725C106.249 294.107 115.184 289.772 125.079 289.828C128.71 289.828 132.31 290.448 135.91 290.944C146.405 292.414 156.992 293.133 167.59 293.096C169.238 293.19 170.889 292.958 172.447 292.414C173.811 291.831 174.926 290.795 176.215 290.045C178.736 288.556 181.791 288.184 184.697 288.184C197.95 287.942 210.72 292.798 223.887 294.51C229.085 283.589 229.395 270.504 225.405 259.087C224.221 255.695 222.629 252.389 222.158 248.823C221.969 246.631 221.919 244.429 222.009 242.231C221.989 236.603 220.976 231.023 219.017 225.747C218.248 223.682 217.325 221.58 217.406 219.379C217.486 217.177 218.571 215.124 219.636 213.177C221.799 209.208 223.974 205.202 227.028 201.853C230.157 198.393 234.073 195.757 237.946 193.171L247.506 186.746C246.199 178.48 244.513 169.773 241.013 162.17C237.512 154.567 232.276 147.577 225.194 143.131C222.806 141.693 220.308 140.449 217.722 139.41C214.103 137.884 210.336 136.539 206.414 136.309C201.953 136.055 197.56 137.252 193.155 137.996C179.288 140.334 162.968 140.049 151.963 131.286Z" fill="#4382FF"/>
<path d="M256.503 274.739L251.955 280.488L243.379 291.322L233.466 303.843L230.696 307.341H225.324L92.302 307.496L8.99661 307.589H5.279C4.78332 306.038 4.32481 304.488 3.90349 302.876C3.28388 300.569 2.7407 298.233 2.27394 295.868C2.1748 295.415 2.08806 294.963 2.00751 294.504L32.2317 274.727L43.5951 274.665L78.3548 274.467L97.7669 274.355H101.311H103.535L116.473 274.287L215.076 273.722L220.12 273.691H222.307L228.1 273.66L249.656 273.536L253.795 271.961L254.099 272.284L256.503 274.739Z" fill="#3F3D56"/>
<path d="M254.644 271.639L254.13 272.259L250.746 276.246L243.782 284.476L229.178 301.71L99.8054 298.404L2.24918 295.924C2.15004 295.471 2.0633 295.018 1.98275 294.559C0.501832 286.601 -0.152234 278.51 0.0310047 270.417L10.8492 264.873L13.3276 263.595L32.6158 253.673L49.5433 244.991L93.6961 250.733L103.473 252.005L107.897 252.575L114.372 253.419L114.917 253.493L216.452 266.671L227.673 268.129L234.259 268.984L254.557 271.626L254.644 271.639Z" fill="#504F60"/>
<path d="M233.577 301.406L233.472 303.843L232.852 317.604L229.519 393.263L228.813 409.616L226.954 451.687L225.907 475.451L222.127 474.267C220.169 473.643 218.213 473.006 216.259 472.357L225.324 307.396L225.516 303.936L229.507 302.696L233.577 301.406Z" fill="#3F3D56"/>
<path d="M9.28165 301.226L9.00283 307.595L8.59389 316.897C7.41252 313.958 6.33028 310.962 5.34718 307.911L5.25424 307.607C4.75856 306.057 4.30005 304.507 3.87872 302.894L9.28165 301.226Z" fill="#3F3D56"/>
<path d="M171.307 207.459C187.048 207.459 199.809 190.245 199.809 169.01C199.809 147.775 187.048 130.561 171.307 130.561C155.566 130.561 142.806 147.775 142.806 169.01C142.806 190.245 155.566 207.459 171.307 207.459Z" fill="#A1616A"/>
<path opacity="0.1" d="M171.307 207.459C187.048 207.459 199.809 190.245 199.809 169.01C199.809 147.775 187.048 130.561 171.307 130.561C155.566 130.561 142.806 147.775 142.806 169.01C142.806 190.245 155.566 207.459 171.307 207.459Z" fill="black"/>
<path d="M175.335 185.444C197.235 185.444 214.989 167.674 214.989 145.754C214.989 123.834 197.235 106.064 175.335 106.064C153.434 106.064 135.68 123.834 135.68 145.754C135.68 167.674 153.434 185.444 175.335 185.444Z" fill="#A1616A"/>
<path d="M176.122 84.5825C173.701 84.7757 171.297 85.1425 168.928 85.6802C162.658 87.2057 157.236 90.5918 151.957 93.9158C149.59 95.4103 147.155 96.9669 145.687 99.1622C143.047 103.1 144.07 108.111 142.589 112.483C141.821 114.728 140.408 116.744 139.212 118.833C135.922 124.564 134.199 130.858 132.508 137.091C132.161 138.381 132.062 140.129 133.468 140.626C134.278 140.794 135.121 140.698 135.872 140.353C140.315 138.883 145.959 138.461 149.256 141.444C152.552 144.427 152.273 149.717 156.195 151.987C160.687 154.61 167.701 151.441 171.778 154.536C173.526 155.863 174.158 157.99 175.589 159.59C178.922 163.311 185.335 163.131 190.67 162.38C193.731 161.946 197.486 161.655 199.344 163.807C200.237 164.824 200.491 166.219 201.525 167.137C203.384 168.799 206.786 167.956 208.601 166.25C210.417 164.545 211.284 162.238 212.796 160.322C215.739 156.601 220.913 154.573 223.949 150.895C226.489 147.795 227.257 143.912 227.951 140.167L230.535 126.281C231.582 120.65 232.536 114.499 229.37 109.537C228.243 107.751 226.625 106.213 225.653 104.365C225.002 103.125 224.636 101.816 223.881 100.644C222.984 99.4234 221.913 98.341 220.702 97.432L214.587 92.3654C212.496 90.5336 210.26 88.8744 207.901 87.4042C199.171 82.3127 186.097 83.6523 176.122 84.5825Z" fill="#464353"/>
<path d="M45.5097 186.82C44.0413 188.383 42.6843 190.07 41.1106 191.534C39.7261 192.766 38.2784 193.925 36.7733 195.006C34.3445 196.826 31.9694 198.709 29.6479 200.656C27.226 202.573 25.0345 204.764 23.1173 207.186C19.8087 211.633 18.2411 217.164 15.1431 221.76C12.4044 225.834 8.54432 229.053 5.76231 233.096C4.54183 234.796 3.63531 236.701 3.08563 238.721C2.67533 240.676 2.49031 242.671 2.53418 244.668C2.47842 247.943 2.42885 251.254 3.09802 254.46C3.76719 257.667 5.23564 260.817 7.75123 262.919C10.0871 264.873 13.1046 265.772 16.0601 266.516C17.5843 266.894 19.2324 267.248 20.6823 266.646C21.7432 266.11 22.6641 265.333 23.3714 264.377L30.9119 255.694C35.9555 249.865 41.1973 243.912 48.1183 240.501C50.2869 239.44 52.5732 238.64 54.748 237.611C63.9677 233.164 70.4859 224.061 73.0138 214.138C73.6334 211.713 74.03 209.239 74.4327 206.764L75.5232 199.98C75.607 199.64 75.607 199.285 75.5232 198.944C75.3525 198.562 75.0776 198.235 74.7301 198.002C69.4778 193.756 64.5602 189.112 60.0208 184.11C58.9427 182.92 57.9327 181.289 56.6873 180.29C55.1259 179.05 55.2437 179.143 53.3663 180.29C50.4783 182.12 47.8377 184.315 45.5097 186.82Z" fill="#A1616A"/>
<path d="M97.0915 231.968C97.0288 231.824 96.9377 231.694 96.8236 231.586C96.7095 231.478 96.5748 231.394 96.4275 231.34C96.2803 231.285 96.1236 231.261 95.9668 231.269C95.81 231.276 95.6564 231.316 95.5151 231.384C95.3739 231.453 95.248 231.549 95.1449 231.668C95.0419 231.786 94.9638 231.924 94.9155 232.074C94.8671 232.223 94.8494 232.381 94.8635 232.538C94.8775 232.694 94.923 232.846 94.9973 232.985L94.3777 233.288L112.854 271.192L116.194 269.561L97.7173 231.633L97.0915 231.968Z" fill="#3F3D56"/>
<path opacity="0.04" d="M45.5097 186.82C44.0413 188.383 42.6843 190.07 41.1106 191.534C39.7261 192.766 38.2784 193.925 36.7733 195.006C34.3445 196.826 31.9694 198.709 29.6479 200.656C27.226 202.573 25.0345 204.764 23.1173 207.186C19.8087 211.633 18.2411 217.164 15.1431 221.76C12.4044 225.834 8.54432 229.053 5.76231 233.096C4.54183 234.796 3.63531 236.701 3.08563 238.721C2.67533 240.676 2.49031 242.671 2.53418 244.668C2.47842 247.943 2.42885 251.254 3.09802 254.46C3.76719 257.667 5.23564 260.817 7.75123 262.919C10.0871 264.873 13.1046 265.772 16.0601 266.516C17.5843 266.894 19.2324 267.248 20.6823 266.646C21.7432 266.11 22.6641 265.333 23.3714 264.377L30.9119 255.694C35.9555 249.865 41.1973 243.912 48.1183 240.501C50.2869 239.44 52.5732 238.64 54.748 237.611C63.9677 233.164 70.4859 224.061 73.0138 214.138C73.6334 211.713 74.03 209.239 74.4327 206.764L75.5232 199.98C75.607 199.64 75.607 199.285 75.5232 198.944C75.3525 198.562 75.0776 198.235 74.7301 198.002C69.4778 193.756 64.5602 189.112 60.0208 184.11C58.9427 182.92 57.9327 181.289 56.6873 180.29C55.1259 179.05 55.2437 179.143 53.3663 180.29C50.4783 182.12 47.8377 184.315 45.5097 186.82Z" fill="black"/>
<path d="M259.111 256.674C259.049 260.631 258.894 264.705 257.252 268.315C256.546 269.877 255.449 271.415 253.807 271.93C252.814 272.16 251.785 272.198 250.777 272.042C238.621 270.972 226.372 271.945 214.537 274.919C217.697 268.594 215.882 261.009 216.755 253.989C216.997 252.073 217.437 250.188 217.604 248.265C218.224 241.444 215.305 234.82 213.967 228.085C212.805 222.256 212.805 216.253 213.967 210.424C214.195 208.923 214.71 207.48 215.485 206.176C216.393 204.906 217.585 203.867 218.967 203.143C223.986 200.284 229.903 199.955 235.541 200.334C239.34 200.588 246.955 200.228 250.121 202.566C253.584 205.127 254.681 213.729 255.617 217.704C257.017 223.801 257.97 229.992 258.467 236.228C259.074 243.025 259.204 249.853 259.111 256.674Z" fill="#A1616A"/>
<path d="M37.1637 270.405L59.4693 285.288L159.845 281.567L93.5474 270.405H37.1637Z" fill="white"/>
<path d="M66.5761 152.148C62.9143 155.379 59.8101 159.187 56.3403 162.629C51.5818 167.354 46.1727 171.373 40.7883 175.373C42.7189 175.913 44.4762 176.945 45.8881 178.369C47.3001 179.794 48.3184 181.56 48.8431 183.497C49.0786 184.408 49.1963 185.357 49.4628 186.25C50.0824 188.365 51.4455 190.188 52.9077 191.831C59.1905 198.92 67.9826 204.166 71.6879 212.917C71.8088 213.342 72.071 213.714 72.4314 213.971C72.7328 214.104 73.0677 214.143 73.3918 214.082C76.7438 213.729 79.3089 211.025 81.4466 208.396C85.9077 202.814 89.7802 196.65 91.9798 189.841C94.1794 183.031 94.5326 175.503 92.1347 168.756C90.9389 165.394 89.0925 162.306 87.2584 159.249C85.6516 156.574 84.0489 153.903 82.4503 151.236C81.6139 149.829 80.5481 146.97 78.9062 146.275C75.3621 144.75 68.8501 149.872 66.5761 152.148Z" fill="#4382FF"/>
<path d="M249.074 192.228L254.346 204.631C248.606 202.624 242.471 202.013 236.449 202.849C230.426 203.684 224.689 205.943 219.711 209.438C216.706 211.589 213.948 214.293 212.591 217.729C211.922 217.856 211.23 217.792 210.595 217.543C209.96 217.294 209.409 216.87 209.004 216.321C208.211 215.208 207.751 213.891 207.678 212.526C207.189 207.763 208.992 203.093 210.776 198.641C211.606 196.557 212.461 194.43 213.936 192.737C215.411 191.044 217.369 189.928 219.327 188.873C225.573 185.416 232.115 182.523 238.875 180.228C241.725 179.304 244.712 179.323 246.31 181.99C248.163 185.171 247.624 188.842 249.074 192.228Z" fill="#4382FF"/>
<path d="M37.2938 229.444C38.6135 230.498 39.7722 231.744 41.1291 232.749C42.5641 233.746 44.0912 234.604 45.6894 235.31L51.7987 238.25C53.6918 239.235 55.6728 240.04 57.7158 240.656C60.3306 241.357 63.0754 241.425 65.7025 242.076C69.0174 242.895 72.0472 244.6 75.3125 245.586C78.5778 246.572 82.4008 246.733 85.127 244.681C86.8309 243.397 88.1197 241.276 90.2325 240.96C91.5956 240.78 92.9092 241.437 94.1236 242.076L110.023 250.442C112.166 251.571 114.434 252.823 115.556 254.975C116.677 257.127 115.921 260.395 113.561 260.953C112.738 261.048 111.91 261.096 111.082 261.096C110.264 261.195 109.372 261.679 109.26 262.504C109.256 263.016 109.391 263.52 109.651 263.961C110.363 265.598 110.574 267.558 109.744 269.146C108.914 270.733 106.875 271.719 105.245 271.006C105.524 273.406 102.916 275.087 100.592 275.725C94.7308 277.332 88.5162 276.346 82.5247 275.329C80.1702 274.932 77.7785 274.522 75.6347 273.468C74.6062 272.966 73.652 272.321 72.6111 271.856C69.7547 270.584 66.508 270.752 63.3852 270.808C48.9423 271.062 34.6233 268.383 20.422 265.716C17.7887 265.22 15.0811 264.693 12.8319 263.236C8.49472 260.408 6.88376 254.603 7.5963 249.468C8.30884 244.333 10.9112 239.682 13.4701 235.168L16.785 229.32C17.2183 228.424 17.8248 227.623 18.5694 226.963C23.4457 223.236 33.1177 226.082 37.2938 229.444Z" fill="#A1616A"/>
<path opacity="0.04" d="M37.2938 229.444C38.6135 230.498 39.7722 231.744 41.1291 232.749C42.5641 233.746 44.0912 234.604 45.6894 235.31L51.7987 238.25C53.6918 239.235 55.6728 240.04 57.7158 240.656C60.3306 241.357 63.0754 241.425 65.7025 242.076C69.0174 242.895 72.0472 244.6 75.3125 245.586C78.5778 246.572 82.4008 246.733 85.127 244.681C86.8309 243.397 88.1197 241.276 90.2325 240.96C91.5956 240.78 92.9092 241.437 94.1236 242.076L110.023 250.442C112.166 251.571 114.434 252.823 115.556 254.975C116.677 257.127 115.921 260.395 113.561 260.953C112.738 261.048 111.91 261.096 111.082 261.096C110.264 261.195 109.372 261.679 109.26 262.504C109.256 263.016 109.391 263.52 109.651 263.961C110.363 265.598 110.574 267.558 109.744 269.146C108.914 270.733 106.875 271.719 105.245 271.006C105.524 273.406 102.916 275.087 100.592 275.725C94.7308 277.332 88.5162 276.346 82.5247 275.329C80.1702 274.932 77.7785 274.522 75.6347 273.468C74.6062 272.966 73.652 272.321 72.6111 271.856C69.7547 270.584 66.508 270.752 63.3852 270.808C48.9423 271.062 34.6233 268.383 20.422 265.716C17.7887 265.22 15.0811 264.693 12.8319 263.236C8.49472 260.408 6.88376 254.603 7.5963 249.468C8.30884 244.333 10.9112 239.682 13.4701 235.168L16.785 229.32C17.2183 228.424 17.8248 227.623 18.5694 226.963C23.4457 223.236 33.1177 226.082 37.2938 229.444Z" fill="black"/>
<path d="M226.433 240.16C223.205 241.685 219.5 241.834 216.129 243.006C212.759 244.178 209.896 246.287 206.804 248.005C198.75 252.507 189.455 254.206 180.329 255.825C174.796 256.817 169.176 257.809 163.6 257.574C156.053 257.251 148.803 254.733 141.492 252.836C134.181 250.938 126.38 249.66 119.137 251.794C115.355 252.946 111.897 254.975 109.044 257.715C106.191 260.455 104.024 263.829 102.718 267.564C101.199 272.023 100.989 276.829 101.28 281.53C102.804 282.652 104.936 281.096 105.766 279.39C106.596 277.685 107.049 275.595 108.659 274.603C111.454 275.552 112.135 279.279 114.44 281.121C115.878 282.274 117.799 282.578 119.626 282.838L129.044 284.178C131.312 284.501 133.945 284.718 135.587 283.118C136.387 282.342 136.827 281.257 137.558 280.426C139.057 278.764 141.56 278.479 143.791 278.702C150.755 279.397 157.286 283.918 164.201 282.845C166.58 282.479 168.792 281.462 171.06 280.662C184.499 275.911 199.431 278.801 213.415 276.079C218.75 275.043 223.887 273.208 228.961 271.273C231.718 270.225 234.507 269.127 236.861 267.353C239.092 265.637 240.851 263.382 241.973 260.799C243.096 258.217 243.546 255.391 243.28 252.588C242.762 248.315 240.632 244.401 237.326 241.648C236.235 240.718 234.804 238.938 233.497 238.355C231 237.257 228.552 239.161 226.433 240.16Z" fill="#A1616A"/>
<g opacity="0.1">
<path opacity="0.1" d="M208.329 160.935C207.294 160.018 207.04 158.622 206.148 157.605C204.289 155.453 200.534 155.745 197.473 156.179C192.138 156.929 185.701 157.103 182.392 153.388C180.961 151.788 180.329 149.667 178.582 148.334C174.505 145.233 167.491 148.408 162.999 145.785C159.076 143.497 159.331 138.188 156.059 135.243C152.788 132.297 147.118 132.681 142.676 134.151C141.924 134.497 141.081 134.592 140.272 134.424C138.865 133.928 138.964 132.179 139.311 130.889C141.003 124.657 142.725 118.362 146.015 112.632C147.211 110.542 148.624 108.526 149.392 106.282C150.737 102.35 150.049 97.9033 151.815 94.1824C149.919 95.4227 148.097 96.7746 146.926 98.5234C144.287 102.461 145.309 107.472 143.828 111.844C143.06 114.089 141.647 116.105 140.451 118.195C137.161 123.925 135.439 130.219 133.747 136.452C133.4 137.742 133.301 139.491 134.708 139.987C135.517 140.155 136.36 140.059 137.112 139.714C141.554 138.244 147.199 137.822 150.495 140.805C153.791 143.788 153.512 149.078 157.435 151.348C161.927 153.971 168.941 150.802 173.018 153.897C174.765 155.224 175.397 157.351 176.828 158.951C180.162 162.672 186.574 162.492 191.909 161.742C194.97 161.308 198.725 161.016 200.584 163.168C201.476 164.185 201.73 165.58 202.765 166.498C204.623 168.16 208.025 167.317 209.84 165.611C211.004 164.398 212.001 163.034 212.802 161.556C211.191 162.046 209.475 161.971 208.329 160.935Z" fill="black"/>
<path opacity="0.1" d="M219.618 154.114C219.219 154.628 218.848 155.165 218.509 155.72C220.888 154.021 223.41 152.433 225.188 150.269C225.65 149.709 226.064 149.111 226.427 148.483C223.955 150.257 221.377 151.888 219.618 154.114Z" fill="black"/>
</g>
<path d="M344.796 276.916L346.655 454.899L355.329 453.659L353.47 276.916H344.796Z" fill="#3F3D56"/>
<path d="M396.842 309.164L398.701 487.147L407.375 485.907L405.517 309.164H396.842Z" fill="#3F3D56"/>
<path d="M558.887 399.074L558.849 395.656V393.622L558.521 362.317L558.007 313.375L557.92 309.152H549.246L549.289 313.22L549.562 339.434L549.679 350.782L549.778 359.973L549.94 375.861L550.039 385.232V386.224L550.169 398.54L550.28 409.399L550.987 408.618C552.123 407.348 553.234 406.059 554.32 404.748L558.887 399.074Z" fill="#3F3D56"/>
<path d="M387.238 338.001L382.282 345.418L387.238 379.21L429.371 390.751H497.528L538.421 393.225L557.902 379.88L554.531 356.959L539.66 338.001H387.238Z" fill="#6C63FF"/>
<path d="M382.282 345.418L379.803 366.019C379.803 366.019 366.792 406.41 471.504 403.935C576.217 401.461 558.248 393.219 558.248 393.219L557.629 369.319C557.629 369.319 561.278 380.63 508.061 379.098C454.843 377.567 405.207 372.618 405.207 372.618C405.207 372.618 386.619 375.911 382.282 345.418Z" fill="#3F3D56"/>
<path d="M469.522 160.762C463.549 163.484 459.025 168.762 455.996 174.597C452.966 180.433 451.262 186.839 449.583 193.202C447.811 199.912 446.032 206.641 445.115 213.518C443.48 225.748 444.706 238.603 450.32 249.586C455.934 260.569 466.306 269.431 478.45 271.546C483.14 272.37 487.961 272.203 492.701 271.713C501.268 270.805 509.708 268.943 517.863 266.163C526.382 263.279 535.249 258.839 539.041 250.659C541.24 245.915 541.426 240.507 541.321 235.285C541.029 221.054 538.881 206.921 534.933 193.245C533.787 189.276 532.454 185.276 530.026 181.934C527.597 178.591 524.276 176.142 520.886 173.872C506.394 164.104 487.347 152.65 469.522 160.762Z" fill="#FBBEBE"/>
<path opacity="0.05" d="M469.522 160.762C463.549 163.484 459.025 168.762 455.996 174.597C452.966 180.433 451.262 186.839 449.583 193.202C447.811 199.912 446.032 206.641 445.115 213.518C443.48 225.748 444.706 238.603 450.32 249.586C455.934 260.569 466.306 269.431 478.45 271.546C483.14 272.37 487.961 272.203 492.701 271.713C501.268 270.805 509.708 268.943 517.863 266.163C526.382 263.279 535.249 258.839 539.041 250.659C541.24 245.915 541.426 240.507 541.321 235.285C541.029 221.054 538.881 206.921 534.933 193.245C533.787 189.276 532.454 185.276 530.026 181.934C527.597 178.591 524.276 176.142 520.886 173.872C506.394 164.104 487.347 152.65 469.522 160.762Z" fill="black"/>
<path d="M462.811 238.82C464.54 241.199 466.631 243.291 469.007 245.022C474.906 249.102 482.477 249.654 489.64 249.878C495.39 250.051 501.982 249.723 505.589 245.233C507.212 243.211 507.943 240.631 508.6 238.12C512.653 222.697 515.532 206.989 517.212 191.131L533.619 191.186C540.72 221.617 540.137 253.251 539.518 284.501L538.619 330.069L528.049 328.947C502.949 326.286 477.812 323.626 452.575 323.167C437.789 322.895 422.998 323.383 408.262 324.631L431.28 256.129C434.266 247.223 437.284 238.2 437.984 228.842C438.994 215.267 435.189 200.935 440.462 188.377C440.884 187.366 441.416 186.318 442.377 185.791C443.337 185.264 444.552 185.394 445.654 185.537C447.736 185.816 454.1 185.537 455.611 186.87C457.842 188.805 456.367 189.097 455.581 192.216C454.174 197.797 452.842 202.963 452.86 208.78C452.879 219.341 456.151 230.492 462.811 238.82Z" fill="#6C63FF"/>
<path d="M558.887 399.073C561.65 395.402 564.255 391.601 566.7 387.669C565.461 385.015 564.098 382.422 563.013 379.712C561.353 375.557 560.399 371.154 559.457 366.782C559.135 365.294 558.814 363.805 558.496 362.317C555.027 346.125 551.767 329.703 551.092 313.288C551.03 311.924 550.991 310.559 550.974 309.195C550.974 308.997 550.974 308.804 550.974 308.575C550.974 307.08 550.974 305.586 550.974 304.097C551.049 300.376 551.284 296.625 551.712 292.891C551.792 292.159 551.885 291.428 551.984 290.696C551.984 290.535 552.022 290.38 552.046 290.218L594.179 288.68L597.723 288.55C600.158 288.463 602.736 288.327 604.743 286.944C608.12 284.625 608.517 279.868 608.461 275.781C608.256 265.452 607.086 255.164 604.966 245.053C603.368 237.45 601.088 229.679 595.97 223.837C591.769 219.037 585.684 215.546 583.497 209.574C582.686 207.354 582.481 204.917 581.428 202.796C580.374 200.675 578.633 199.118 576.991 197.481C571.213 191.75 566.419 185.103 562.803 177.81C560.293 172.749 557.573 167.168 554.295 163.67C554.134 163.49 553.973 163.323 553.806 163.162C551.018 160.402 547.827 159.193 544.047 161.072C543.368 161.413 542.721 161.816 542.114 162.275C540.767 163.305 539.535 164.478 538.44 165.773C534.622 170.166 531.272 174.947 528.446 180.036C526.458 183.619 524.751 187.351 523.34 191.199C522.227 194.238 521.306 197.345 520.583 200.501C520.05 202.839 519.629 205.202 519.294 207.571C518.055 216.476 518.055 225.555 518.228 234.572C518.414 242.857 518.78 251.161 519.53 259.415C519.715 261.412 519.922 263.407 520.149 265.4C520.604 269.34 521.165 273.268 521.835 277.183C522.101 278.677 522.374 280.172 522.677 281.66C522.752 282.057 522.832 282.454 522.913 282.845L522.95 283.012C523.768 286.472 524.403 289.972 524.852 293.499C524.902 293.941 524.939 294.382 524.964 294.82C525.068 296.847 525.051 298.878 524.914 300.904C524.771 303.297 524.548 305.685 524.437 308.079C524.437 308.5 524.437 308.916 524.394 309.319C524.363 310.528 524.394 311.738 524.394 312.947C524.519 315.84 524.863 318.72 525.422 321.561C526.467 326.846 528.272 331.951 530.782 336.717C531.017 337.164 531.259 337.604 531.5 338.038C534.642 343.657 538.607 348.81 541.513 354.559C544.02 359.732 545.892 365.19 547.09 370.813C547.503 372.67 547.895 374.53 548.267 376.395C548.843 379.371 549.357 382.373 549.884 385.374C549.933 385.672 549.989 385.994 550.045 386.267C550.745 390.249 551.482 394.212 552.43 398.1C552.982 400.363 553.602 402.596 554.326 404.791L558.887 399.073Z" fill="#464353"/>
<path d="M550.609 350.193C550.609 350.751 550.572 351.31 550.547 351.874C550.436 354.595 550.186 357.309 549.797 360.004C549.284 363.683 548.384 367.298 547.114 370.788C546.272 373.084 545.201 375.288 543.917 377.368C542.778 379.215 541.445 380.935 539.939 382.497C536.222 386.367 530.868 387.601 525.688 389.232C523.305 389.922 521.002 390.864 518.817 392.041C518.427 392.258 518.043 392.494 517.671 392.742L511.19 397.039C509.17 398.373 507.107 399.756 505.719 401.734C505.491 402.071 505.284 402.421 505.099 402.782C504.222 404.603 503.581 406.529 503.191 408.512C499.82 422.565 496.443 436.63 494.132 450.893C493.977 451.836 493.828 452.785 493.667 453.734L493.612 454.031C493.584 453.961 493.551 453.892 493.513 453.827C476.932 463.861 459.738 472.915 442.024 480.165L438.176 447.917C437.775 445.295 437.642 442.64 437.779 439.991C438.145 435.818 439.843 431.861 440.301 427.7C440.735 423.626 439.966 419.514 438.089 415.873C437.358 414.46 436.441 413.07 436.274 411.489C436.106 409.908 437.017 408.463 438.603 408.301C439.843 406.925 439.942 405.046 439.576 403.185C439.382 402.214 439.091 401.265 438.709 400.351C437.655 397.759 436.323 394.937 437.228 392.289C437.467 391.809 437.574 391.274 437.538 390.739C437.544 390.706 437.544 390.672 437.538 390.64C437.327 389.945 436.503 389.641 436.075 389.052C435.27 387.954 436.075 386.46 436.571 385.195C437.053 383.835 437.333 382.412 437.401 380.971C437.47 380.171 437.519 379.365 437.606 378.571C437.727 377.497 437.919 376.432 438.182 375.384C439.687 369.443 443.307 364.257 448.362 360.798C450.772 359.173 453.455 357.989 455.915 356.457C458.435 354.757 460.84 352.892 463.115 350.875C468.571 346.328 474.245 342.04 480.135 338.013C486.469 333.684 493.03 329.697 499.789 326.069C501.235 325.288 502.681 324.527 504.126 323.787C505.7 322.96 507.284 322.177 508.879 321.437C513.984 319 519.777 319.911 525.422 321.536C527.789 322.212 530.125 323.018 532.38 323.75C534.583 324.467 536.701 325.419 538.7 326.59C543.7 329.53 547.833 333.871 549.549 339.353C549.552 339.388 549.552 339.423 549.549 339.458C550.64 342.894 550.708 346.578 550.609 350.193Z" fill="#F86D70"/>
<path opacity="0.1" d="M550.609 350.193C550.609 350.751 550.572 351.31 550.547 351.874C550.436 354.595 550.186 357.309 549.797 360.004C549.284 363.683 548.384 367.298 547.114 370.788C546.272 373.084 545.201 375.288 543.917 377.368C542.778 379.215 541.445 380.935 539.939 382.497C536.222 386.367 530.868 387.601 525.688 389.232C523.305 389.922 521.002 390.864 518.817 392.041C518.427 392.258 518.043 392.494 517.671 392.742L511.19 397.039C509.17 398.373 507.107 399.756 505.719 401.734C505.491 402.071 505.284 402.421 505.099 402.782C504.222 404.603 503.581 406.529 503.191 408.512C499.82 422.565 496.443 436.63 494.132 450.893C493.977 451.836 493.828 452.785 493.667 453.734L493.612 454.031C493.584 453.961 493.551 453.892 493.513 453.827C476.932 463.861 459.738 472.915 442.024 480.165L438.176 447.917C437.775 445.295 437.642 442.64 437.779 439.991C438.145 435.818 439.843 431.861 440.301 427.7C440.735 423.626 439.966 419.514 438.089 415.873C437.358 414.46 436.441 413.07 436.274 411.489C436.106 409.908 437.017 408.463 438.603 408.301C439.843 406.925 439.942 405.046 439.576 403.185C439.382 402.214 439.091 401.265 438.709 400.351C437.655 397.759 436.323 394.937 437.228 392.289C437.467 391.809 437.574 391.274 437.538 390.739C437.544 390.706 437.544 390.672 437.538 390.64C437.327 389.945 436.503 389.641 436.075 389.052C435.27 387.954 436.075 386.46 436.571 385.195C437.053 383.835 437.333 382.412 437.401 380.971C437.47 380.171 437.519 379.365 437.606 378.571C437.727 377.497 437.919 376.432 438.182 375.384C439.687 369.443 443.307 364.257 448.362 360.798C450.772 359.173 453.455 357.989 455.915 356.457C458.435 354.757 460.84 352.892 463.115 350.875C468.571 346.328 474.245 342.04 480.135 338.013C486.469 333.684 493.03 329.697 499.789 326.069C501.235 325.288 502.681 324.527 504.126 323.787C505.7 322.96 507.284 322.177 508.879 321.437C513.984 319 519.777 319.911 525.422 321.536C527.789 322.212 530.125 323.018 532.38 323.75C534.583 324.467 536.701 325.419 538.7 326.59C543.7 329.53 547.833 333.871 549.549 339.353C549.552 339.388 549.552 339.423 549.549 339.458C550.64 342.894 550.708 346.578 550.609 350.193Z" fill="black"/>
<path d="M491.778 247.471C491.715 247.327 491.624 247.198 491.51 247.09C491.396 246.982 491.261 246.898 491.114 246.844C490.966 246.789 490.81 246.765 490.653 246.773C490.496 246.78 490.342 246.82 490.201 246.888C490.06 246.957 489.934 247.053 489.831 247.172C489.728 247.29 489.65 247.428 489.601 247.578C489.553 247.727 489.535 247.885 489.55 248.042C489.564 248.198 489.609 248.35 489.683 248.488L489.064 248.792L507.54 286.696L510.88 285.065L492.403 247.137L491.778 247.471Z" fill="#3F3D56"/>
<path d="M514.876 207.769C536.777 207.769 554.531 190 554.531 168.08C554.531 146.16 536.777 128.39 514.876 128.39C492.976 128.39 475.222 146.16 475.222 168.08C475.222 190 492.976 207.769 514.876 207.769Z" fill="#FBBEBE"/>
<path d="M567.214 143.509C567.029 140.354 566.56 137.222 565.814 134.151C563.484 124.123 559.227 114.251 551.898 107.051C551.446 105.29 550.906 103.554 550.28 101.848C550.269 101.805 550.254 101.764 550.237 101.724C548.05 95.7129 544.89 90.104 540.881 85.1221C538.558 82.2321 535.546 79.3795 531.841 79.2678C530.8 79.2306 529.697 79.4105 528.743 78.9329C528.041 78.4788 527.451 77.8727 527.014 77.1593C525.179 74.8386 522.746 73.0637 519.977 72.0265C517.207 70.9893 514.208 70.7291 511.301 71.2741L510.917 71.3547C510.7 71.3981 510.483 71.4477 510.298 71.5035C510.112 71.5593 509.777 71.6524 509.517 71.733C509.802 72.2043 510.081 72.6818 510.353 73.1655C511.089 74.4761 511.77 75.8156 512.398 77.1841C512.918 78.3252 513.4 79.4849 513.842 80.6632C507.497 81.3887 502.329 85.8972 497.608 90.1887L486.492 100.285C486.472 100.302 486.454 100.32 486.437 100.341L486.114 100.651C486.034 100.731 485.953 100.812 485.879 100.899C485.849 100.925 485.822 100.954 485.798 100.986C485.706 101.085 485.619 101.19 485.532 101.296C485.377 101.491 485.239 101.698 485.117 101.916C485.056 102.009 485.002 102.106 484.956 102.207C484.939 102.237 484.924 102.268 484.912 102.3C484.872 102.385 484.837 102.472 484.807 102.561C484.804 102.573 484.804 102.586 484.807 102.598C484.79 102.649 484.775 102.701 484.764 102.753C484.637 103.189 484.675 103.657 484.869 104.068L492.199 104.148H493.06C493.097 105.128 493.128 106.114 493.166 107.094C492.003 107.965 490.886 108.897 489.82 109.885C488.657 110.962 487.567 112.113 486.554 113.333C479.943 121.326 476.492 131.652 476.145 142.046C476.145 142.368 476.145 142.666 476.145 143.001C476.145 143.95 476.145 144.898 476.145 145.841C476.145 146.461 476.201 147.081 476.25 147.702C476.254 148.509 476.467 149.302 476.87 150.002C476.923 150.08 476.981 150.155 477.044 150.226C477.415 150.629 477.861 150.958 478.357 151.193L478.89 151.453C479.156 151.584 479.41 151.708 479.658 151.85C481.994 153.171 483.376 155.72 485.501 157.357C485.625 157.45 485.749 157.543 485.873 157.624L486.152 157.81L486.325 157.922L486.561 158.058C486.715 158.151 486.874 158.236 487.038 158.312L487.335 158.461H487.385C487.632 158.573 487.88 158.678 488.134 158.771L488.488 158.895L488.593 158.932C488.692 158.963 488.797 159.001 488.903 159.025C489.113 159.087 489.32 159.143 489.522 159.193L490.142 159.329C490.384 159.373 490.631 159.416 490.879 159.447L491.245 159.497L491.617 159.534C492.207 159.588 492.802 159.619 493.401 159.627C495.281 159.615 497.158 159.485 499.021 159.236L514.833 157.376C518.42 156.96 522.082 156.545 525.62 157.277C528.619 157.897 531.383 159.323 534.295 160.334C534.951 160.563 535.608 160.774 536.271 160.954C536.513 161.022 536.761 161.097 537.009 161.159L537.349 161.246L538.142 161.438C538.427 161.506 538.712 161.574 538.997 161.63C539.4 161.717 539.797 161.791 540.199 161.866C540.472 161.922 540.751 161.965 541.03 162.015H541.086L541.879 162.139H542.071L542.659 162.219C542.944 162.263 543.229 162.3 543.521 162.331C544.153 162.409 544.785 162.478 545.417 162.536C546.439 162.635 547.467 162.709 548.515 162.771L549.543 162.833L550.572 162.883L553.67 163.019H553.806H554.24C555.528 163.109 556.822 163.042 558.094 162.821C558.317 162.777 558.533 162.728 558.75 162.666C558.967 162.604 559.147 162.542 559.37 162.467C561.693 161.574 563.391 159.522 564.568 157.326C564.816 156.861 565.045 156.396 565.256 155.919C565.467 155.441 565.659 154.957 565.832 154.474C566.049 153.853 566.235 153.264 566.396 152.644C566.446 152.477 566.489 152.309 566.526 152.136C566.563 151.962 566.65 151.621 566.7 151.36C566.855 150.647 566.972 149.928 567.059 149.202C567.059 148.973 567.115 148.737 567.14 148.508C567.195 147.888 567.239 147.311 567.264 146.703C567.264 146.244 567.264 145.779 567.264 145.314C567.257 144.812 567.214 144.148 567.214 143.509ZM551.327 106.486C550.826 106.015 550.311 105.562 549.791 105.134C550.37 105.5 550.887 105.957 551.321 106.486H551.327Z" fill="#464353"/>
<path d="M438.771 165.897C434.105 165.32 429.477 163.273 424.873 164.278C421.992 164.898 419.514 166.69 417.209 168.532C408.631 175.413 401.338 183.759 395.665 193.183C394.703 194.592 394.027 196.177 393.676 197.847C393.379 199.782 393.905 201.747 394.531 203.602C398.769 216.135 407.834 226.603 411.961 239.174C416.298 252.395 414.792 266.845 411.595 280.389C407.632 297.109 401.191 313.142 392.487 327.954C391.305 330.157 389.824 332.185 388.087 333.982C385.832 336.153 382.802 337.703 381.464 340.543C380.844 341.784 380.665 343.198 380.225 344.525C378.985 348.246 375.987 351.433 375.695 355.359C375.478 358.354 376.897 361.188 377.759 364.041C379.211 368.942 379.057 374.18 377.319 378.987C374.177 387.607 365.961 395.445 368.347 404.307C373.669 402.776 379.568 400.785 382.077 395.842C382.963 394.093 383.403 392.01 384.896 390.732C387.877 388.196 392.951 390.49 396.117 388.159C398.509 386.385 398.596 382.751 397.53 379.96C396.464 377.17 394.63 374.714 393.812 371.843C392.387 366.664 394.668 361.188 394.246 355.836C394.048 353.356 393.286 350.981 393.23 348.512C393.125 343.719 395.777 339.21 399.302 335.954C402.828 332.699 407.183 330.54 411.471 328.413L427.68 320.351C433.56 317.437 440.004 313.883 441.931 307.607C442.662 305.257 442.668 302.751 442.705 300.296C443.257 262.77 452.65 226.002 461.987 189.655C463.437 184.024 464.912 178.368 467.068 172.96C469.224 167.552 473.444 163.211 475.594 158.188C463.121 156.725 451.727 167.521 438.771 165.897Z" fill="#464353"/>
<path d="M528.123 401.312C529.555 409.994 530.428 418.862 531.11 427.687C519.957 436.94 507.949 444.989 495.749 452.456C495.055 452.884 494.355 453.306 493.655 453.696L493.599 453.994C493.571 453.923 493.538 453.855 493.5 453.789C492.554 451.742 490.898 450.108 488.841 449.188C484.268 439.575 479.7 429.963 475.135 420.351C472.657 415.16 470.178 409.92 468.939 404.32C468.939 404.202 468.883 404.078 468.865 403.96C467.923 399.619 467.706 395.111 467.08 390.714C466.763 388.195 466.197 385.715 465.389 383.309C464.645 381.17 463.623 379.092 462.718 377.002C461.603 374.422 460.667 371.812 460.624 369.027C460.624 368.14 460.68 367.167 460.246 366.422C459.782 365.782 459.21 365.228 458.555 364.785C457.737 364.059 457.117 363.137 456.752 362.106C456.388 361.074 456.292 359.967 456.473 358.888C452.755 359.08 450.661 363.08 449.168 366.472C447.81 369.79 446.027 372.917 443.864 375.774C442.287 377.816 440.282 379.486 437.99 380.667C437.786 380.766 437.581 380.866 437.37 380.953C432.197 383.235 426.156 382.428 420.548 381.399C415.647 380.5 410.579 379.384 406.638 376.332L406.217 375.998C405.05 375.027 404.01 373.915 403.119 372.686C399.816 368.171 398.354 362.224 397.542 356.562C397.468 356.029 397.394 355.495 397.326 354.962C396.762 350.961 396.607 346.914 396.861 342.881C396.935 341.889 397.041 340.897 397.171 339.911C397.257 339.291 397.35 338.621 397.456 337.976C397.453 337.958 397.453 337.939 397.456 337.92C397.617 336.897 397.79 335.868 397.964 334.82C398.583 331.303 399.203 327.694 401.062 324.668C402.285 322.785 403.828 321.131 405.622 319.781C406.291 319.254 406.979 318.751 407.673 318.268C408.801 317.486 409.959 316.742 411.137 316.041C414.098 314.267 417.208 312.752 420.431 311.514C421.199 311.217 421.98 310.937 422.76 310.671C425.795 309.59 429.061 309.332 432.228 309.92C435.034 310.327 437.87 310.493 440.704 310.417C447.972 310.274 455.271 308.885 462.526 307.986C472.601 306.745 483.425 306.596 492.211 311.706C492.633 311.948 493.042 312.203 493.451 312.469C497.788 315.31 501.282 319.291 504.102 323.737C504.721 324.674 505.26 325.635 505.793 326.609C507.021 328.844 508.132 331.141 509.12 333.492C509.705 334.647 510.021 335.919 510.044 337.213C510.029 337.459 509.996 337.704 509.944 337.945C509.777 338.826 509.443 339.681 509.325 340.574C508.934 343.954 511.803 346.776 512.875 349.995C513.569 352.091 513.495 354.336 513.885 356.543C514.449 359.644 515.967 362.435 517.33 365.225C519.484 369.718 521.327 374.353 522.845 379.098C523.923 382.404 524.846 385.759 525.658 389.145C525.922 390.232 526.172 391.321 526.407 392.413C527.083 395.414 527.634 398.354 528.123 401.312Z" fill="#F86D70"/>
<path d="M594.185 309.474V313.815L593.386 313.803L592.494 313.79L582.531 313.666L557.982 313.344L551.092 313.257L549.308 313.232L538.966 313.102L524.393 312.91L493.475 312.507L439.824 311.812L420.461 311.564L412.692 311.465L405.541 311.372L401.087 311.31L396.867 311.254L365.583 310.851L356.909 310.739L355.019 310.714L353.792 307.545L344.876 284.532L343.247 280.327L344.486 275.366L350.062 279.087L353.495 279.515L410.009 286.547L420.616 287.868L443.108 290.671L465.141 293.412L473.778 294.485L524.889 300.848L539.171 302.628L550.993 304.097L593.027 309.331L594.185 309.474Z" fill="#3F3D56"/>
<path d="M344.486 275.366L355.639 304.513L594.185 309.474V277.846L344.486 275.366Z" fill="#504F60"/>
<path d="M356.878 307.614L358.737 485.597L367.411 484.357L365.552 307.614H356.878Z" fill="#3F3D56"/>
<path d="M593.386 313.796H592.494C591.049 324.893 588.659 335.845 585.35 346.534L582.531 313.666L582.413 312.265L592.835 311.062L593.182 311.024L593.386 313.796Z" fill="#3F3D56"/>
<path d="M559.488 292.73L468.716 294.59L440.524 285.288L516.116 280.947L559.488 292.73Z" fill="white"/>
<path d="M445.624 256.563C444.661 256.932 443.808 257.541 443.145 258.33C442.626 259.186 442.311 260.149 442.222 261.146L440.698 270.243C440.465 271.076 440.506 271.961 440.815 272.767C441.212 273.53 442.364 273.927 442.941 273.295C442.866 275.074 443.021 276.972 444.056 278.423C445.091 279.874 447.259 280.637 448.722 279.626C448.951 280 449.259 280.32 449.624 280.563C449.989 280.806 450.402 280.967 450.835 281.034C451.268 281.101 451.711 281.073 452.132 280.952C452.554 280.831 452.944 280.62 453.276 280.333C452.396 280.631 452.334 281.977 452.96 282.659C453.66 283.278 454.554 283.635 455.488 283.67C466.376 285.206 477.476 283.808 487.645 279.62C488.605 279.223 486.077 267.372 485.823 266.157C485.204 263.298 484.894 259.806 482.484 257.884C476.721 253.282 466.485 252.377 459.465 252.923C454.669 253.286 449.979 254.519 445.624 256.563Z" fill="#FBBEBE"/>
<path opacity="0.1" d="M537.981 257.94C515.57 258.367 492.695 258.733 471.306 252.017C473.349 259.941 473.208 268.272 470.897 276.122L575.684 284.804C580.127 285.17 598.547 287.254 602.878 286.206C607.209 285.158 566.539 271.75 568.181 267.602C572.698 256.172 587.828 249.474 576.929 249.047C563.174 248.501 551.842 257.679 537.981 257.94Z" fill="black"/>
<path d="M538.601 259.18C516.19 259.608 493.314 259.974 471.926 253.257C473.969 261.182 473.827 269.512 471.517 277.363L576.304 286.045C580.746 286.411 599.167 288.525 603.498 287.446C607.829 286.367 606.813 281.053 608.455 276.904C612.972 265.474 588.448 250.715 577.549 250.287C563.794 249.741 552.461 258.919 538.601 259.18Z" fill="#464353"/>
<path d="M502.968 260.904C503.93 261.273 504.783 261.881 505.446 262.671C505.964 263.528 506.282 264.49 506.375 265.487L507.9 274.584C508.129 275.417 508.088 276.301 507.782 277.108C507.385 277.871 506.227 278.268 505.657 277.636C505.725 279.415 505.576 281.313 504.541 282.764C503.507 284.215 501.338 284.978 499.87 283.967C499.64 284.341 499.332 284.661 498.968 284.904C498.603 285.147 498.189 285.308 497.756 285.375C497.323 285.442 496.88 285.414 496.459 285.293C496.037 285.172 495.647 284.961 495.316 284.674C496.195 284.972 496.263 286.318 495.638 287C494.935 287.619 494.039 287.976 493.104 288.011C482.217 289.547 471.119 288.149 460.952 283.961C459.992 283.564 462.514 271.713 462.774 270.498C463.394 267.639 463.703 264.147 466.114 262.225C471.87 257.623 482.112 256.718 489.132 257.264C493.926 257.627 498.614 258.861 502.968 260.904Z" fill="#FBBEBE"/>
<path d="M354.883 241.152C352.826 243.806 350.763 246.516 349.437 249.611C346.902 255.515 347.274 262.2 347.696 268.612C347.813 270.473 347.962 272.37 348.935 273.914C349.776 275.081 350.885 276.028 352.169 276.674C357.535 279.725 363.818 280.637 369.952 281.319C379.345 282.361 388.771 282.996 398.23 283.223C421.664 283.793 445.456 281.877 468.282 287.192C465.457 282.894 465.463 277.207 467.043 272.308C468.623 267.409 471.665 263.142 474.646 258.944C464.199 255.632 452.997 260.804 442.055 260.29C430.821 259.763 420.424 253.263 409.179 253.27C406.762 253.27 404.302 253.574 401.954 252.991C399.606 252.408 397.332 250.634 397.115 248.222C400.114 248.898 402.958 246.33 404.197 243.515C405.436 240.699 405.659 237.518 406.861 234.684C409.854 227.633 417.94 224.364 422.971 218.56C423.764 217.642 424.514 216.557 424.489 215.341C424.371 214.312 423.938 213.343 423.25 212.569C419.067 206.988 412.766 203.887 407.53 199.546C405.709 198.033 402.035 192.327 399.99 191.8C396.198 190.827 392.982 196.309 390.516 198.982C378.066 212.522 366.189 226.578 354.883 241.152Z" fill="#464353"/>
<path opacity="0.07" d="M479.472 239.577C481.043 240.743 482.439 242.127 483.617 243.688C484.205 244.473 484.623 245.37 484.846 246.325C485.069 247.279 485.092 248.269 484.912 249.233C484.72 247.435 485.12 245.624 486.052 244.076C486.984 242.527 488.396 241.326 490.074 240.656L479.472 239.577Z" fill="black"/>
<g opacity="0.1">
<path opacity="0.1" d="M513.835 76.9483C513.107 75.01 512.267 73.1154 511.32 71.2739C510.708 71.3917 510.104 71.547 509.511 71.739C510.574 73.5063 511.532 75.3348 512.379 77.215C512.856 77.091 513.34 77.0041 513.835 76.9483Z" fill="black"/>
<path opacity="0.1" d="M549.785 101.401C549.952 101.537 550.113 101.692 550.274 101.835C550.262 101.795 550.248 101.755 550.231 101.717C550.09 101.614 549.942 101.508 549.785 101.401Z" fill="black"/>
<path opacity="0.1" d="M492.187 104.13C492.509 103.875 492.806 103.609 493.153 103.361L493.054 100.415L486.437 100.347C485.365 101.333 484.225 102.747 484.857 104.068L492.187 104.13Z" fill="black"/>
<path opacity="0.1" d="M564.531 153.717C563.354 155.912 561.656 157.971 559.333 158.858C557.542 159.54 555.572 159.478 553.657 159.391C547.127 159.125 540.485 158.833 534.313 156.669C531.426 155.652 528.663 154.232 525.639 153.605C522.101 152.873 518.439 153.289 514.852 153.711L499.039 155.571C494.374 156.117 489.175 156.526 485.451 153.661C483.32 152.024 481.945 149.475 479.609 148.16C478.623 147.602 477.452 147.243 476.814 146.3C476.411 145.6 476.198 144.807 476.195 143.999C476.145 143.348 476.114 142.697 476.089 142.046C476.022 143.938 476.057 145.832 476.195 147.72C476.198 148.528 476.411 149.321 476.814 150.021C477.434 150.957 478.623 151.317 479.609 151.881C481.945 153.196 483.326 155.745 485.451 157.382C489.169 160.247 494.374 159.863 499.039 159.292L514.852 157.432C518.439 157.01 522.101 156.594 525.639 157.326C528.638 157.946 531.401 159.373 534.313 160.39C540.509 162.554 547.127 162.87 553.657 163.112C555.572 163.193 557.542 163.261 559.333 162.579C561.656 161.692 563.354 159.633 564.531 157.438C566.811 153.19 567.45 148.371 567.208 143.515C567.075 147.071 566.161 150.554 564.531 153.717Z" fill="black"/>
</g>
<path opacity="0.1" d="M513.656 80.936L522.33 88.998C522.33 88.998 514.895 85.8972 513.656 80.936Z" fill="black"/>
</g>
<defs>
<clipPath id="clip0">
<rect width="609" height="498" fill="white"/>
</clipPath>
</defs>
</svg>
